<?xml version="1.0" standalone="no"?>
<!DOCTYPE svg PUBLIC "-//W3C//DTD SVG 20010904//EN"
 "http://www.w3.org/TR/2001/REC-SVG-20010904/DTD/svg10.dtd">
<svg version="1.0" xmlns="http://www.w3.org/2000/svg"
 width="500.000000pt" height="500.000000pt" viewBox="0 0 500.000000 500.000000"
 preserveAspectRatio="xMidYMid meet">
<metadata>
Created by potrace 1.11, written by Peter Selinger 2001-2013
</metadata>
<g transform="translate(0.000000,500.000000) scale(0.100000,-0.100000)"
fill="#000000" stroke="none">
<path d="M0 2500 l0 -2500 2500 0 2500 0 0 2500 0 2500 -2500 0 -2500 0 0
-2500z m2457 935 c37 -13 73 -31 79 -40 12 -16 28 -135 19 -143 -3 -3 -11 10
-19 29 -66 157 -283 198 -410 76 -76 -73 -91 -113 -91 -252 0 -105 3 -126 23
-166 80 -160 261 -206 420 -105 l43 27 -3 97 -3 97 -35 17 -35 17 105 0 c103
0 105 -1 73 -16 l-33 -17 0 -94 0 -95 -34 -32 c-47 -44 -112 -73 -195 -85
-162 -26 -309 43 -376 176 -28 56 -30 66 -30 179 0 104 3 126 23 165 25 51 73
106 117 137 86 58 245 71 362 28z m484 0 c55 -20 77 -40 100 -90 32 -69 19
-164 -29 -219 -43 -49 -182 -75 -227 -43 -16 12 -12 15 40 20 92 9 144 60 153
146 5 61 -10 102 -50 136 -26 22 -39 25 -109 25 l-79 0 0 -291 c0 -182 4 -298
10 -310 6 -11 25 -26 43 -33 30 -13 23 -14 -88 -14 -66 0 -110 3 -98 6 13 4
32 15 43 24 19 17 20 29 20 310 0 257 -2 294 -17 310 -9 10 -24 18 -35 18 -10
0 -18 5 -18 10 0 17 290 13 341 -5z m-2345 -1432 c-5 -11 58 -240 68 -250 1
-2 22 57 46 131 24 74 47 133 50 131 4 -3 27 -59 50 -125 24 -67 46 -118 50
-113 12 13 61 200 58 220 -2 14 4 19 30 21 35 4 39 -2 17 -24 -12 -13 -80
-211 -101 -297 -3 -16 -10 -25 -14 -20 -4 4 -26 62 -49 127 -23 66 -44 122
-46 124 -5 6 -5 8 -54 -143 -34 -105 -40 -117 -48 -95 -6 14 -32 87 -58 163
-27 77 -54 141 -62 144 -26 10 -12 20 28 20 30 0 39 -3 35 -14z m1325 -2 c63
-26 99 -86 99 -161 0 -55 -10 -81 -44 -118 -37 -41 -80 -52 -195 -51 -58 1
-98 3 -89 6 24 6 30 51 26 193 -2 88 -7 125 -16 128 -6 2 -10 7 -7 11 6 11
197 4 226 -8z m-711 -57 c0 -23 -1 -24 -16 -10 -10 10 -33 16 -65 16 l-49 0 0
-61 0 -60 52 2 c43 3 54 0 56 -13 3 -14 -4 -16 -52 -11 l-56 6 0 -62 0 -61 56
0 c46 0 59 4 75 23 l19 22 -11 -32 -11 -33 -101 1 c-56 1 -94 3 -84 6 15 4 17
19 17 139 0 83 -4 134 -10 134 -5 0 -10 5 -10 10 0 6 38 10 95 10 l95 0 0 -26z
m192 20 c71 -12 101 -71 58 -114 -19 -19 -19 -21 -3 -27 55 -20 69 -85 27
-124 -23 -21 -36 -24 -117 -27 -69 -2 -88 0 -74 8 15 10 17 28 17 140 0 112
-2 130 -17 139 -14 8 -8 10 27 11 25 0 62 -3 82 -6z m868 -14 c0 -21 -15 -27
-25 -10 -3 6 -28 10 -54 10 -42 0 -49 -3 -55 -22 -3 -13 -3 -40 1 -61 l6 -39
48 4 c47 3 49 2 49 -22 0 -17 -3 -21 -9 -12 -5 9 -24 12 -52 10 -49 -3 -57
-18 -44 -84 6 -33 7 -34 57 -34 39 0 57 5 75 22 l23 22 -11 -32 -11 -32 -101
0 c-74 1 -97 3 -84 11 15 9 17 27 17 136 0 108 -2 128 -17 139 -15 11 -3 13
85 14 95 0 102 -1 102 -20z m125 1 c-4 -12 11 -62 36 -125 l42 -106 45 101
c26 61 42 111 39 125 -4 22 -1 24 42 24 43 0 45 -1 24 -15 -19 -13 -67 -104
-128 -242 -10 -24 -22 -43 -26 -43 -4 0 -12 12 -17 28 -28 76 -104 230 -123
250 l-21 22 47 0 c41 0 46 -2 40 -19z m465 -1 c0 -22 -10 -26 -27 -9 -5 5 -32
9 -59 7 l-49 -3 -3 -58 -3 -59 55 4 c46 2 56 0 56 -13 0 -13 -10 -15 -55 -11
l-55 4 0 -61 0 -61 58 0 c46 0 63 4 77 20 23 26 29 20 14 -14 -12 -26 -14 -26
-113 -26 -74 1 -96 3 -83 11 15 9 17 27 17 137 0 86 -4 132 -12 140 -9 9 10
12 85 12 90 0 97 -1 97 -20z m152 8 c-8 -8 -12 -54 -12 -140 l0 -128 56 0 c46
0 59 4 75 23 l19 22 -11 -32 -11 -33 -101 1 c-56 1 -94 3 -84 6 15 4 17 19 17
135 0 113 -2 133 -17 144 -16 12 -12 13 32 14 38 0 46 -3 37 -12z m435 -14
c50 -37 67 -71 67 -127 0 -65 -29 -111 -88 -138 -52 -24 -100 -24 -152 0 -122
55 -118 228 6 280 39 17 136 8 167 -15z m301 -1 c74 -56 14 -174 -75 -147
l-28 8 31 4 c40 4 65 31 66 72 1 42 -22 63 -73 64 l-41 1 0 -65 c1 -198 1
-198 20 -203 9 -3 -8 -5 -38 -6 -42 0 -51 2 -37 10 15 9 17 27 17 137 0 89 -4
132 -12 141 -23 23 137 8 170 -16z m282 7 c0 -21 -15 -27 -25 -10 -3 6 -28 10
-54 10 -42 0 -49 -3 -55 -22 -3 -13 -3 -40 1 -61 l6 -39 48 4 c47 3 49 2 49
-22 0 -17 -3 -21 -9 -12 -5 9 -24 12 -52 10 -49 -3 -57 -18 -44 -84 6 -33 7
-34 57 -34 39 0 57 5 75 22 l23 22 -11 -32 -11 -32 -101 0 c-74 1 -97 3 -84
11 15 9 17 27 17 136 0 108 -2 128 -17 139 -15 11 -3 13 85 14 95 0 102 -1
102 -20z m265 -10 c35 -33 33 -74 -5 -112 l-31 -30 38 -50 c21 -27 49 -56 63
-63 l25 -14 -30 0 c-35 -1 -59 17 -106 79 -18 25 -41 50 -49 57 -13 10 -10 12
14 13 40 0 66 26 66 66 0 41 -34 67 -82 62 l-33 -3 -2 -122 c-2 -99 0 -125 13
-137 14 -15 11 -16 -33 -16 -37 1 -44 3 -30 11 15 9 17 27 17 137 0 89 -4 132
-12 141 -11 11 2 12 70 9 69 -4 86 -9 107 -28z"/>
<path d="M1750 1846 l0 -156 68 0 c108 0 152 37 160 135 9 111 -40 164 -159
173 l-69 5 0 -157z"/>
<path d="M1348 1943 c-7 -15 -10 -193 -3 -223 6 -28 10 -30 49 -30 29 0 48 6
59 18 18 19 22 59 9 78 -11 18 -48 34 -79 35 l-28 1 30 10 c45 16 55 27 55 63
0 24 -6 34 -25 43 -29 14 -62 16 -67 5z"/>
<path d="M3271 1924 c-84 -71 -48 -227 57 -241 46 -6 103 17 125 50 38 59 27
149 -24 191 -43 36 -115 36 -158 0z"/>
</g>
</svg>
